<svg id="Layer_1" data-name="Layer 1" xmlns="http://www.w3.org/2000/svg" xmlns:xlink="http://www.w3.org/1999/xlink" viewBox="0 0 1254.14 1106.02"><defs><style>.cls-1{fill:url(#radial-gradient);}</style><radialGradient id="radial-gradient" cx="852.46" cy="684.9" r="521.82" gradientUnits="userSpaceOnUse"><stop offset="0" stop-color="#df6"/><stop offset="0.99" stop-color="#79d064"/></radialGradient></defs><path class="cls-1" d="M640.94,524.81c-6.52,0-9.39-2.87-9.39-9.39V387.34H533.2c-6.52,0-9.39-2.87-9.39-9.39V346.38c0-6.52,2.87-9.39,9.39-9.39H820.94c6.52,0,9.39,2.87,9.39,9.39V378c0,6.52-2.87,9.39-9.39,9.39H680.59V515.42c0,6.52-2.87,9.39-9.39,9.39Z"/><path class="cls-1" d="M641.2,621.21c-6.52,0-9.39-2.87-9.39-9.39v-169c0-6.52,2.87-9.39,9.39-9.39H757.54c6.52,0,9.39,2.87,9.39,9.39v31c0,6.52-2.87,9.39-9.39,9.39H681v27.13h55.39c6.52,0,9.39,2.87,9.39,9.39V551c0,6.52-2.87,9.39-9.39,9.39H681v51.39c0,6.52-2.87,9.39-9.39,9.39Z"/><ellipse class="cls-1" cx="614.46" cy="623.25" rx="67.68" ry="45.78"/></svg>